# xmcd
#
# Track frame offsets: 
#        150
#        10543
#        25118
#        39878
#        56787
#        78129
#        101170
#        130841
#        153610
#        176156
#        197762
#        216883
#        234705
#        252163
#        270209
#
# Disc length: 3952 seconds
#
# Revision: 0
# Processed by: cddbd v1.5.2PL0 Copyright (c) Steve Scherf et al.
# Submitted via: ExactAudioCopy v0.95a4
#
DISCID=bf0f6e0f
DTITLE=Various Artist - The Rough Guide to the Music of New Orleans [CD1 o
DTITLE=f 2)
DYEAR=2012
DGENRE=Blues
TTITLE0=Jessie Hill - Ooh Poo Pah Doo
TTITLE1=The Meters - Look-Ka Py Py
TTITLE2=Earl King - Street Parade - Part 1
TTITLE3=Big Chief Monk Boudreaux - Monk's Mardi Gras
TTITLE4=James and Troy Andrews - Zulu King
TTITLE5=Kermit Ruffins - Treme Mardi Gras
TTITLE6=Papa Grows Funk - Soul Second Line
TTITLE7=New Orleans Night Crawlers /Hold 'Em Joe
TTITLE8=The Hot 8 Grass Band - Sexual Healing [Re-Edit]
TTITLE9=Dumpataphunk - Sheez Music
TTITLE10=Jon Cleary and The Absolute Monster Gentlemen - Whe You Get Bac
TTITLE10=k
TTITLE11=Los Hombres Calientes - El Barrio
TTITLE12=Professor Longhair - Big Chief [Live]
TTITLE13=Dr John - Mac's Boogie
TTITLE14=Dr Michael White - Basin' Street Blues
EXTD=
EXTT0=
EXTT1=
EXTT2=
EXTT3=
EXTT4=
EXTT5=
EXTT6=
EXTT7=
EXTT8=
EXTT9=
EXTT10=
EXTT11=
EXTT12=
EXTT13=
EXTT14=
PLAYORDER=
